<?xml version="1.0" encoding="UTF-8"?>
<svg width="74px" height="74px" viewBox="0 0 74 74" version="1.1" xmlns="http://www.w3.org/2000/svg" xmlns:xlink="http://www.w3.org/1999/xlink">
    <!-- Generator: Sketch 42 (36781) - http://www.bohemiancoding.com/sketch -->
    <title>check_</title>
    <desc>Created with Sketch.</desc>
    <defs></defs>
    <g id="Page-1" stroke="none" stroke-width="1" fill="none" fill-rule="evenodd">
        <g id="check_" fill-rule="nonzero" fill="#FFFFFF">
            <g id="Outline_Icons_1_">
                <g id="Outline_Icons">
                    <g id="Group">
                        <path d="M54.2338207,26.2187024 L30.9730578,47.6696951 L23.2526537,39.9099203 C22.6550261,39.3122926 21.5772592,40.0634667 22.1748869,40.6610944 L29.8367799,48.3229874 C30.4190838,48.9052913 31.3599643,48.9236799 31.9667862,48.3597645 L54.9524653,26.906464 C55.5715463,26.3302896 54.8529016,25.6394633 54.2338207,26.2187024 Z" id="Shape"></path>
                        <path d="M37,0 C16.5975833,0 0,16.5975833 0,37 C0,57.4024167 16.5975833,74 37,74 C57.4024167,74 74,57.4024167 74,37 C74,16.5975833 57.4024167,0 37,0 Z M37,73 C17.1509091,73 1,56.8523636 1,37 C1,17.1509091 17.1509091,1 37,1 C56.8490909,1 73,17.1509091 73,37 C73,56.8523636 56.8490909,73 37,73 Z" id="Shape"></path>
                    </g>
                </g>
            </g>
        </g>
    </g>
</svg>